HIERARCHY
ROOT Hip
{
	OFFSET	0.00  0.00  0.00 
	CHANNELS 6 Xposition Yposition Zposition Xrotation Zrotation Yrotation
	JOINT Abdomen
	{
		OFFSET	0.039181 5.637571 0.560720
		CHANNELS 3 Xrotation Zrotation Yrotation
		JOINT Chest
		{
			OFFSET	-0.136063 7.190207 -0.124363
			CHANNELS 3 Xrotation Zrotation Yrotation
			JOINT Neck
			{
				OFFSET	0.193764 10.560151 -1.259468
				CHANNELS 3 Xrotation Zrotation Yrotation
				JOINT Head
				{
					OFFSET	-0.096882 0.362727 0.622109
					CHANNELS 3 Xrotation Zrotation Yrotation
					JOINT Left Eye
					{
						OFFSET	1.356350 5.062673 4.221998
						CHANNELS 3 Zrotation Yrotation Xrotation
						End Site
						{
							OFFSET 0.000000 0.000000 0.871939
						}
					}
					JOINT Right Eye
					{
						OFFSET	-1.356350 5.062673 4.221998
						CHANNELS 3 Zrotation Yrotation Xrotation
						End Site
						{
							OFFSET 0.000000 0.000000 0.871939
						}
					}
				}
			}
			JOINT Right Collar
			{
				OFFSET	-3.778404 4.940989 0.193764
				CHANNELS 3 Yrotation Zrotation Xrotation
				JOINT Right Shoulder
				{
					OFFSET	-2.615818 1.356350 -0.484411
					CHANNELS 3 Zrotation Yrotation Xrotation
					JOINT Right Forearm
					{
						OFFSET	-11.432094 0.484410 -1.937643
						CHANNELS 3 Yrotation Zrotation Xrotation
						JOINT Right Hand
						{
							OFFSET	-10.657035 -0.096881 0.581293
							CHANNELS 3 Zrotation Yrotation Xrotation
							JOINT Right Thumb 1
							{
								OFFSET	-0.678175 -0.581297 0.968821
								CHANNELS 3 Zrotation Yrotation Xrotation
								JOINT Right Thumb 2
								{
									OFFSET	-0.968823 -0.484410 0.484411
									CHANNELS 3 Zrotation Yrotation Xrotation
									JOINT Right Thumb 3
									{
										OFFSET	-0.929680 -0.497680 0.055639
										CHANNELS 3 Zrotation Yrotation Xrotation
										End Site
										{
											OFFSET -1.097190 -0.513867 -0.001182
										}
									}
								}
							}
							JOINT Right Index 1
							{
								OFFSET	-3.003348 0.581291 1.259468
								CHANNELS 3 Zrotation Yrotation Xrotation
								JOINT Right Index 2
								{
									OFFSET	-1.468153 -0.266718 0.069755
									CHANNELS 3 Zrotation Yrotation Xrotation
									JOINT Right Index 3
									{
										OFFSET	-0.944212 -0.382684 -0.083028
										CHANNELS 3 Zrotation Yrotation Xrotation
										End Site
										{
											OFFSET -0.675657 -0.558718 0.000000
										}
									}
								}
							}
							JOINT Right Mid 1
							{
								OFFSET	-3.197113 0.581291 0.290646
								CHANNELS 3 Zrotation Yrotation Xrotation
								JOINT Right Mid 2
								{
									OFFSET	-1.550115 -0.387529 0.000000
									CHANNELS 3 Zrotation Yrotation Xrotation
									JOINT Right Mid 3
									{
										OFFSET	-0.731071 -0.803926 0.018214
										CHANNELS 3 Zrotation Yrotation Xrotation
										End Site
										{
											OFFSET -0.366992 -0.937043 0.083406
										}
									}
								}
							}
							JOINT Right Ring 1
							{
								OFFSET	-3.197113 0.387529 -0.678175
								CHANNELS 3 Zrotation Yrotation Xrotation
								JOINT Right Ring 2
								{
									OFFSET	-1.259466 -0.484410 0.096882
									CHANNELS 3 Zrotation Yrotation Xrotation
									JOINT Right Ring 3
									{
										OFFSET	-0.551552 -0.801218 0.111221
										CHANNELS 3 Zrotation Yrotation Xrotation
										End Site
										{
											OFFSET -0.245208 -0.810324 0.000000
										}
									}
								}
							}
							JOINT Right Pinky 1
							{
								OFFSET	-2.809584 -0.096881 -1.453232
								CHANNELS 3 Zrotation Yrotation Xrotation
								JOINT Right Pinky 2
								{
									OFFSET	-0.984323 -0.316034 0.039140
									CHANNELS 3 Zrotation Yrotation Xrotation
									JOINT Right Pinky 3
									{
										OFFSET	-0.468908 -0.555906 0.057742
										CHANNELS 3 Zrotation Yrotation Xrotation
										End Site
										{
											OFFSET -0.479664 -0.640198 0.044081
										}
									}
								}
							}
						}
					}
				}
			}
			JOINT Left Collar
			{
				OFFSET	3.972168 4.940989 0.193764
				CHANNELS 3 Yrotation Zrotation Xrotation
				JOINT Left Shoulder
				{
					OFFSET	2.615818 1.356350 -0.484411
					CHANNELS 3 Zrotation Yrotation Xrotation
					JOINT Left Forearm
					{
						OFFSET	11.432094 0.484410 -1.937643
						CHANNELS 3 Yrotation Zrotation Xrotation
						JOINT Left Hand
						{
							OFFSET	10.657035 -0.096881 0.581293
							CHANNELS 3 Zrotation Yrotation Xrotation
							JOINT Left Thumb 1
							{
								OFFSET	0.678175 -0.581297 0.968821
								CHANNELS 3 Zrotation Yrotation Xrotation
								JOINT Left Thumb 2
								{
									OFFSET	0.968823 -0.484410 0.484411
									CHANNELS 3 Zrotation Yrotation Xrotation
									JOINT Left Thumb 3
									{
										OFFSET	0.929680 -0.497680 0.055639
										CHANNELS 3 Zrotation Yrotation Xrotation
										End Site
										{
											OFFSET 1.097190 -0.513867 -0.001182
										}
									}
								}
							}
							JOINT Left Index 1
							{
								OFFSET	3.003348 0.581291 1.259468
								CHANNELS 3 Zrotation Yrotation Xrotation
								JOINT Left Index 2
								{
									OFFSET	1.468153 -0.266718 0.069755
									CHANNELS 3 Zrotation Yrotation Xrotation
									JOINT Left Index 3
									{
										OFFSET	0.944212 -0.382684 -0.083028
										CHANNELS 3 Zrotation Yrotation Xrotation
										End Site
										{
											OFFSET 0.675657 -0.558718 0.000000
										}
									}
								}
							}
							JOINT Left Mid 1
							{
								OFFSET	3.197113 0.581291 0.290646
								CHANNELS 3 Zrotation Yrotation Xrotation
								JOINT Left Mid 2
								{
									OFFSET	1.550115 -0.387529 0.000000
									CHANNELS 3 Zrotation Yrotation Xrotation
									JOINT Left Mid 3
									{
										OFFSET	0.731071 -0.803926 0.018214
										CHANNELS 3 Zrotation Yrotation Xrotation
										End Site
										{
											OFFSET 0.366992 -0.937043 0.083406
										}
									}
								}
							}
							JOINT Left Ring 1
							{
								OFFSET	3.197113 0.387529 -0.678175
								CHANNELS 3 Zrotation Yrotation Xrotation
								JOINT Left Ring 2
								{
									OFFSET	1.259466 -0.484410 0.096882
									CHANNELS 3 Zrotation Yrotation Xrotation
									JOINT Left Ring 3
									{
										OFFSET	0.551552 -0.801218 0.111221
										CHANNELS 3 Zrotation Yrotation Xrotation
										End Site
										{
											OFFSET 0.245208 -0.810324 0.000000
										}
									}
								}
							}
							JOINT Left Pinky 1
							{
								OFFSET	2.809584 -0.096881 -1.453232
								CHANNELS 3 Zrotation Yrotation Xrotation
								JOINT Left Pinky 2
								{
									OFFSET	0.984323 -0.316034 0.039140
									CHANNELS 3 Zrotation Yrotation Xrotation
									JOINT Left Pinky 3
									{
										OFFSET	0.468908 -0.555906 0.057742
										CHANNELS 3 Zrotation Yrotation Xrotation
										End Site
										{
											OFFSET 0.479664 -0.640198 0.044081
										}
									}
								}
							}
						}
					}
				}
			}
		}
	}
	JOINT Right Thigh
	{
		OFFSET	-3.875286 0.717509 0.339475
		CHANNELS 3 Xrotation Zrotation Yrotation
		JOINT Right Shin
		{
			OFFSET	-0.434323 -20.673391 0.003424
			CHANNELS 3 Xrotation Zrotation Yrotation
			JOINT Right Foot
			{
				OFFSET	-0.063555 -15.653578 -0.075717
				CHANNELS 3 Xrotation Yrotation Zrotation
				JOINT Right Toe
				{
					OFFSET	-0.513669 -2.790361 5.061637
					CHANNELS 3 Xrotation Yrotation Zrotation
					End Site
					{
						OFFSET 0.000000 -0.280183 2.993164
					}
				}
			}
		}
	}
	JOINT Left Thigh
	{
		OFFSET	3.875286 0.717509 0.339475
		CHANNELS 3 Xrotation Zrotation Yrotation
		JOINT Left Shin
		{
			OFFSET	0.434323 -20.673391 0.003424
			CHANNELS 3 Xrotation Zrotation Yrotation
			JOINT Left Foot
			{
				OFFSET	0.063555 -15.653578 -0.075717
				CHANNELS 3 Xrotation Yrotation Zrotation
				JOINT Left Toe
				{
					OFFSET	0.513669 -2.874842 4.946725
					CHANNELS 3 Xrotation Yrotation Zrotation
					End Site
					{
						OFFSET 0.000000 -0.195702 3.108076
					}
				}
			}
		}
	}
}
MOTION
Frames:     4
Frame Time: 0.033333
48.700134 41.702011 -78.626457 160.968002 176.011002 2.495900 3.523630 -3.859920 1.860580 11.601800 0.344382 0.071757 0.000000 0.000000 0.000000 7.695780 10.802600 -8.913050 0.000000 0.000000 0.000000 0.000000 0.000000 0.000000 3.186880 -7.548030 3.608020 85.486656 -10.854858 1.540643 50.974407 0.094921 -0.523061 -26.857601 8.040382 -4.538444 -0.148866 4.300910 -2.889064 -0.969521 10.750637 -5.265257 -0.352224 -0.698024 0.196501 11.000000 -3.000000 0.000000 -0.703124 0.000000 0.000000 -0.351563 0.000000 0.000000 -6.328124 0.000000 0.000000 -0.175783 0.000000 0.000000 -0.878282 -0.851486 0.565014 -16.874960 -0.027392 -0.173635 -0.527215 -0.145857 -0.098107 -0.330115 0.000000 0.000000 -25.312502 0.000000 0.000000 -0.879166 -0.248563 -0.003813 25.488283 0.000000 0.000000 1.283940 16.744400 1.880480 -95.400909 5.972417 -10.638550 -46.580009 0.068523 -0.413175 27.016493 -8.130841 -4.423720 -0.363538 -4.801451 -3.043116 0.453299 -10.927784 -5.334939 -0.176190 0.239587 -0.066301 -11.000000 3.000000 0.000000 0.175868 -0.165140 -0.060234 -0.175780 0.000000 0.000000 5.800781 0.000000 0.000000 -0.175783 0.000000 0.000000 0.337787 0.650167 0.088474 16.347645 -0.146858 -0.200575 -0.000368 0.047000 -0.244107 -0.154333 0.000000 0.000000 24.785158 0.000000 0.000000 0.351429 0.121987 -0.126563 -26.015625 0.000000 0.000000 -29.516529 -0.171462 -15.858637 28.299833 0.000265 -0.292656 -3.173778 -25.250746 10.202255 -0.000457 0.016384 -0.175016 -31.678288 4.340825 12.670028 31.640343 -0.029561 0.123427 -20.915337 15.783461 3.141358 0.000000 0.000000 0.000000 
48.154110 41.715206 -78.489174 160.615005 176.020004 2.295680 4.051350 -3.682220 1.838000 11.602000 0.516572 0.107634 0.000000 0.000000 0.000000 6.439650 10.656600 -8.811950 0.000000 0.000000 0.000000 0.000000 0.000000 0.000000 3.188190 -7.723540 3.618170 85.046814 -10.535909 1.553237 51.501732 0.094310 -0.528917 -16.447165 -33.127472 17.871105 -0.148866 4.300910 -2.889064 -0.969521 10.750637 -5.265257 -0.352224 -0.698024 0.196501 11.000000 -3.000000 0.000000 -0.703124 0.000000 0.000000 -0.351563 0.000000 0.000000 -6.328124 0.000000 0.000000 -0.175783 0.000000 0.000000 -0.878282 -0.851486 0.565014 -16.874960 -0.027392 -0.173635 -0.527215 -0.145857 -0.098107 -0.330115 0.000000 0.000000 -25.312502 0.000000 0.000000 -0.879166 -0.248563 -0.003813 25.488283 0.000000 0.000000 1.101380 16.917400 2.103260 -95.537857 5.616097 -10.514506 -47.282722 0.204912 -0.369314 10.033581 33.872448 8.073256 -0.363538 -4.801451 -3.043116 0.453299 -10.927784 -5.334939 -0.176190 0.239587 -0.066301 -11.000000 3.000000 0.000000 0.175868 -0.165140 -0.060234 -0.175780 0.000000 0.000000 5.800781 0.000000 0.000000 -0.175783 0.000000 0.000000 0.337787 0.650167 0.088474 16.347645 -0.146858 -0.200575 -0.000368 0.047000 -0.244107 -0.154333 0.000000 0.000000 24.785158 0.000000 0.000000 0.351429 0.121987 -0.126563 -26.015625 0.000000 0.000000 -30.202976 -0.869321 -15.300411 28.652103 0.000258 -0.118606 -1.948377 -25.436760 10.226068 -0.000457 0.016384 -0.175016 -31.772165 3.499811 13.093930 30.937027 -0.120012 0.095991 -21.419367 16.215534 3.670626 0.000000 0.000000 0.000000 
47.605759 41.728394 -78.341232 160.259003 175.863007 2.036440 4.579770 -3.679670 1.628370 11.602000 0.516572 0.107634 0.000000 0.000000 0.000000 5.181870 10.329600 -8.544130 0.000000 0.000000 0.000000 0.000000 0.000000 0.000000 3.187560 -7.713850 3.793660 84.588120 -10.147459 1.327978 52.029057 0.093666 -0.534776 -16.669180 -32.823658 17.870228 -0.148866 4.300910 -2.889064 -0.969521 10.750637 -5.265257 -0.352224 -0.698024 0.196501 11.000000 -3.000000 0.000000 -0.703124 0.000000 0.000000 -0.351563 0.000000 0.000000 -6.328124 0.000000 0.000000 -0.175783 0.000000 0.000000 -0.878282 -0.851486 0.565014 -16.874960 -0.027392 -0.173635 -0.527215 -0.145857 -0.098107 -0.330115 0.000000 0.000000 -25.312502 0.000000 0.000000 -0.879166 -0.248563 -0.003813 25.488283 0.000000 0.000000 0.918646 17.086500 2.151320 -95.414711 5.270764 -10.781766 -47.986233 -0.114848 -0.496100 9.987715 33.515495 7.952947 -0.363538 -4.801451 -3.043116 0.453299 -10.927784 -5.334939 -0.176190 0.239587 -0.066301 -11.000000 3.000000 0.000000 0.175868 -0.165140 -0.060234 -0.175780 0.000000 0.000000 5.800781 0.000000 0.000000 -0.175783 0.000000 0.000000 0.337787 0.650167 0.088474 16.347645 -0.146858 -0.200575 -0.000368 0.047000 -0.244107 -0.154333 0.000000 0.000000 24.785158 0.000000 0.000000 0.351429 0.121987 -0.126563 -26.015625 0.000000 0.000000 -30.710812 -1.389911 -14.963838 29.003660 0.000271 -0.120119 -0.534380 -25.463211 10.192193 -0.000457 0.016384 -0.175016 -31.675406 2.762472 13.823795 30.762161 -0.029265 -0.055610 -21.935173 16.003841 4.330697 0.000000 0.000000 0.000000 
47.056820 41.721802 -78.219452 159.906998 175.871994 2.011100 5.107220 -3.501720 1.610680 11.777800 0.516244 0.109217 0.000000 0.000000 0.000000 4.107610 10.169700 -8.218740 0.000000 0.000000 0.000000 0.000000 0.000000 0.000000 3.188900 -7.889360 3.803800 84.295258 -9.818549 1.068422 52.380596 0.092972 -0.538579 -16.749754 -32.386768 17.867903 -0.148866 4.300910 -2.889064 -0.969521 10.750637 -5.265257 -0.352224 -0.698024 0.196501 11.000000 -3.000000 0.000000 -0.703124 0.000000 0.000000 -0.351563 0.000000 0.000000 -6.328124 0.000000 0.000000 -0.175783 0.000000 0.000000 -0.878282 -0.851486 0.565014 -16.874960 -0.027392 -0.173635 -0.527215 -0.145857 -0.098107 -0.330115 0.000000 0.000000 -25.312502 0.000000 0.000000 -0.879166 -0.248563 -0.003813 25.488283 0.000000 0.000000 0.919517 17.262300 2.148230 -95.350784 4.913680 -10.746793 -48.690372 -0.286975 -0.398745 10.135720 33.291172 7.814238 -0.363538 -4.801451 -3.043116 0.453299 -10.927784 -5.334939 -0.176190 0.239587 -0.066301 -11.000000 3.000000 0.000000 0.175868 -0.165140 -0.060234 -0.175780 0.000000 0.000000 5.800781 0.000000 0.000000 -0.175783 0.000000 0.000000 0.337787 0.650167 0.088474 16.347645 -0.146858 -0.200575 -0.000368 0.047000 -0.244107 -0.154333 0.000000 0.000000 24.785158 0.000000 0.000000 0.351429 0.121987 -0.126563 -26.015625 0.000000 0.000000 -31.371384 -2.078408 -14.213985 29.177195 0.085940 -0.625695 0.862295 -25.182781 10.525779 -0.000457 0.016384 -0.175016 -31.544111 2.077467 14.030407 29.706575 -0.115453 0.093207 -21.834633 16.677683 4.904644 0.000000 0.000000 0.000000 
